<?xml version="1.0" encoding="UTF-8"?>
<svg xmlns="http://www.w3.org/2000/svg" id="Layer_1" data-name="Layer 1" viewBox="0 0 968.47 301.73">
  <defs>
    <style>
      .cls-1{fill:#bf4f00}.cls-3{fill:#405a3e}
    </style>
  </defs>
  <path d="M223.86 135.21c-10.99-26.1-29.58-43.89-54.85-53.45-6.18-2.34-13.39-3.19-19.94-2.56-24.42 2.33-56.66 30.55-62.63 55.82-7.04 29.77 2.68 55.23 22.82 75.8 5.82 5.94 15.23 8.9 23.49 10.94 7.69 1.91 15.89 1.48 23.94 1.78 1.96.07 3.92.01 5.87-.17 2.64-.25 6.4-.7 10.23-1.48.16-.03.32-.1.46-.2.63-.45 1.26-.9 1.83-1.39.17-.14.29-.33.36-.54.27-.8.46-1.52.49-1.82.24-2.37-.88-4.63-2.26-6.49-.95-1.27-2.23-2.21-3.67-2.92-.23-.12-.5-.14-.75-.09-5.63 1.1-11.48 1.5-17.47 1.53-48.49 2.76-61.74-47.58-46.12-80.31 6.46-13.54 15.7-24.65 27.57-33.17 11.43-8.2 23.61-9.12 35.56-1.87 18.34 11.11 32.27 27.12 41.49 47.12 6.78 14.71 2.28 33.18-10.14 48.24-.4.48-.38 1.19.07 1.63 1.75 1.7 3.27 3.56 4.61 5.56.04.06.09.12.14.17.34.34.66.7.94 1.09.39.55.68 1.14.95 1.75.57 1.52 1.84.61 2.07.31 6.93-8.15 12.23-17.86 15.94-28.7 4.18-12.21 4.01-24.65-1-36.56Z" style="fill:#a89869"></path>
  <path d="M193.19 134.81c-7.95-9.63-18.52-17.44-28.9-24.64-7.43-5.16-16.56-4.75-23.78 1.59-7.5 6.58-14.94 13.46-21.24 21.16-8.78 10.75-10.38 22.92-5.86 35.31.2.54.87.73 1.33.38 2-1.51 4.23-2.76 6.66-3.75 1.01-.41 1.65-1.45 1.47-2.52-.26-1.53-.37-3.11-.34-4.73.04-2.14.32-4.26.82-6.32.68-3.19 1.9-6.52 3.67-9.94 3.3-6.39 7.75-12.34 12.49-17.79 7.15-8.22 16.48-9.75 24.72-2.75 7.71 6.55 14.55 14.52 20.27 22.9 4.63 6.78 3.43 15.2-1.07 22.36v.01c-1.83 3.75-4.63 7.04-8.27 9.67-.35.25-.7.49-1.06.73-1.46.96-.92 3.21.82 3.37 2.5.23 5.19.55 6.95.96.06.01.13 0 .19-.03 17.59-9.83 23.26-31.25 11.13-45.96Z" style="fill:#dcd4c0"></path>
  <path d="M256.82 143.63c-1.33-19.95-11.08-37.04-23.33-52.07-21.23-26.06-49.35-42.92-83.03-39.07-35.84 4.09-66.48 21.94-87.18 53.2-8.6 12.99-12.65 27.74-9.66 43.07 5.13 26.32 14.48 51.16 31.45 72.44 1.15 1.44 2.34 2.85 3.56 4.2.22.25 6.87 6.64 7.97 7.51 3.51 2.75 10.21 7.52 18.18 10.86 7.91 3.31 18.89 4.82 25.3 5.46a101.435 101.435 0 0 0 5.25.41c1.96.1 3.97.16 6.02.16 21.39 0 53.07-5.45 53.07-33.9 0-18.57-14.13-30.07-35.72-30.07h-28.45c-5.65 0-11.3-2.62-11.3-8.47 0-2.92 3.37-5.84 5.89-7.71 3.67 3.37 9.09 5.32 15.65 5.31 17.03-.03 28.24-8.12 28.37-20.47.11-11.3-11.43-21.56-24.06-21.37-13.33.2-24.89 11.22-25.14 23.97-.09 4.62 1.45 8.6 4.25 11.62-12.32.64-20.49 7.57-20.49 14.7s4.88 13.25 16.88 15.5c6.46 1.21 16.32 1.25 16.32 1.25h19.47c14.53 0 22 6.66 22 15.74 0 15.13-17.76 19.37-36.73 19.37-3.43 0-6.87-.18-10.17-.59-30.21-5.05-43.83-25.29-43.92-25.33-.08-.04-1.09-1.15-1.51-1.61-10.16-11.21-16.47-25.88-19.92-42.98-1.33-6.55-1.73-13.28-2.54-19.93 0-.14-.02-.28-.03-.42-.15-47.14 47.28-84.43 93.81-75.45 45.21 8.73 73.74 54.08 69.99 84.24-.97 7.86-2.18 16.39-5.98 23.06a307.386 307.386 0 0 1-19.58 30.17c-.57.77-.82 1.74-.65 2.68.44 2.38.66 4.86.66 7.43 0 1.54-.08 3.05-.23 4.52-.35 3.33 3.66 5.27 5.96 2.84 15.29-16.13 27.46-34.47 35.57-55.47 2.97-7.69 4.56-16.62 4.01-24.81Zm-102.61-3.4c6.38-.14 12.44 6.91 12.59 14.65.15 7.49-5.24 12.92-12.73 12.84-6.95-.07-12.3-5.53-12.25-12.48.06-7.59 6.08-14.88 12.38-15.02Z" class="cls-1"></path>
  <path d="M299.43 117.71c0-19.54 14.58-34.6 34.69-34.6 15.06 0 25.71 6.18 30.77 16.67l-11.7 6.82-1.34-2.82c-3.57-5.22-9.69-8.75-17.73-8.75-12.3 0-21.92 9.25-21.92 22.68s9.44 22.69 21.73 22.69c9.91 0 18.59-7.55 20.49-16.7l-19.82 1.55v-10.96h32.5v36.79h-12.3l1.9-23.98c0 12.77-8.76 25.22-25.82 25.22s-31.45-13.92-31.45-34.6ZM380.44 84.35h28.4c13.06 0 20.3 7.72 20.3 16.87 0 7.72-5.24 15.16-17.73 15.16 11.34.67 15.23 6.88 17.16 16.97l3.1 17.73h-12.49l-1.83-14.84c-.79-7.04-5.55-8.8-10.99-9.96l-13.63-2.8v27.6h-12.3V84.36ZM406.18 116c6.01-.68 10.39-4.39 10.39-10.2s-4-10.01-10.58-10.01h-13.25v21.27l13.44-1.06ZM442.31 84.35h41.46v12.99l-29.16-4.65v20.37l25.92-1.55v11.15l-25.92-1.55v21.61l30.21-4.65v12.99h-42.51V84.34ZM509.99 84.35h23.92l19.35 66.72h-12.87l-2.36-8.29-29.37-9.83-5.16 18.12h-12.87l19.35-66.72Zm24.09 44.31L521.9 85.88l-11.25 39.84 23.43 2.94ZM703.33 84.35h23.92l19.35 66.72h-12.87l-2.36-8.29-29.37-9.83-5.16 18.12h-12.87l19.35-66.72Zm24.1 44.31-12.18-42.78L704 125.72l23.43 2.94ZM570.78 94.24l-20.68 5.01v-14.9h53.95v14.9l-20.87-5.01v56.83h-12.39V94.24ZM637.32 84.35h12.39v56.73l29.45-1.55v11.53h-41.84V84.34ZM754.1 84.35h12.3v53.47c0-18.87 2.86-26.5 12.87-38.32l13.15-15.15h14.77l-22.21 26.5 23.35 40.22h-14.49l-17.35-30.12c-8.58 11.34-10.1 19.25-10.1 30.12h-12.3V84.35ZM815.39 84.35h41.46v12.99l-29.16-4.65v20.37l25.92-1.55v11.15l-25.92-1.55v21.61l30.21-4.65v12.99h-42.51V84.34ZM864.55 133.53l12.29-3.69.15 3.35c2.14 4.59 6.87 7.58 13.49 7.58 8.2 0 12.87-3.72 12.87-8.77 0-4.57-3.34-7.05-8.29-8.29l-10.1-2.38c-9.15-2.19-17.63-7.43-17.63-19.25 0-10.1 8.67-18.97 23.35-18.97 12.58 0 21.73 6.39 23.83 16.77l-12.11 3.4-.14-2.48c-1.63-3.63-5.49-6.45-11.58-6.45-7.34 0-11.06 3.81-11.06 7.72 0 4.48 3.53 6.39 8.29 7.63l10.1 2.48c11.34 2.86 17.82 9.25 17.82 19.83s-8.96 20.3-25.35 20.3c-14.39 0-23.64-7.72-25.92-18.78Z" class="cls-3"></path>
  <path d="M497.04 188.8c-3.04-2.76-7.75-5.66-11.65-3.47-1.9 1.09-2.43 3.23-1.86 5.42.76 2.85 3.19 4.47 8.09 5.61 10.42 2.43 13.79 6.71 12.41 14.03-1.19 6.42-7.04 8.32-12.6 8.23-5.57-.1-10.23-1.33-13.6-3.47v-11.22c2.33 4.9 7.28 10.89 13.08 12.65 4.19 1.24 8.99 1.14 9.47-2.76.38-3.23-1.38-6.37-10.84-8.94-8.89-2.38-11.41-6.42-10.89-12.27.62-6.23 6.28-8.89 13.08-8.8 6.18.1 10.04 2.14 10.04 2.14l.05 8.99s-1.24-2.95-4.76-6.13ZM550.4 217.71h-18.69s5.37-.76 3.52-5.47l-2.9-7.37-10.7-.05-2.76 6.75c-1.19 2.9 0 5.85 3.61 6.14h-11.03c2.19-.14 4.8-2.09 6.28-5.61l12.89-30.39s.05.19.14.43l13.65 31.39c1.71 3.85 5.18 4.18 5.99 4.18Zm-25.92-19.78-2.57 6.28h10.13l-2.81-7.37c-1.05-2.52-1.43-3.71-2-3.71-.67 0-1.47 1.57-2.76 4.8Zm25.92 19.78h.19-.19ZM587.46 194.88c-.62-1.86-4.04-5.33-6.09-6.75-2.23-1.62-5.61-3.19-10.13-3.19h-1.95v15.27h1.81c6.8-.24 8.23-6.23 8.23-6.23v13.32s-1.38-6.42-8.23-6.47h-1.81v12.08c0 4.47 4.33 4.8 4.9 4.8h-17.31c.57 0 4.85-.24 4.85-4.8v-23.64c0-4.76-4.28-4.85-4.85-4.85h28.68l1.9 10.46ZM632.69 217.71H614s5.37-.76 3.52-5.47l-2.9-7.37-10.7-.05-2.76 6.75c-1.19 2.9 0 5.85 3.61 6.14h-11.03c2.19-.14 4.8-2.09 6.28-5.61l12.89-30.39s.05.19.14.43l13.65 31.39c1.71 3.85 5.18 4.18 5.99 4.18Zm-25.92-19.78-2.57 6.28h10.13l-2.81-7.37c-1.05-2.52-1.43-3.71-2-3.71-.67 0-1.47 1.57-2.76 4.8Zm25.92 19.78h.19-.19ZM672.88 217.71h-10.75c-.86-1.24-1.86-2.71-3.28-5.38l-3.66-6.85c-2.28-4.33-4.57-3.66-4.85-3.76l-.09 13.03c0 2.85 2.95 2.95 3.52 2.95h-15.93c.57 0 4.85-.1 4.85-4.8v-23.69c0-4.71-4.8-4.8-4.85-4.8 4.52 0 9.84-.43 14.65-.33 5.8.09 9.61.66 11.84 3 1.43 1.43 2.09 3.57 2.05 5.95 0 2.14-.62 4.37-2.62 6.18-2 1.86-3.99 2.28-4.04 2.28.05 0 1.66.38 4.28 5.37l2.57 4.8c2.66 5.04 6.33 6.04 6.33 6.04Zm-13.6-25.01c0-6.23-3.19-8.51-9.04-8.13l.09 16.6c1.09 0 2.76-.19 3.99-.62 3.9-1.33 4.95-4.38 4.95-7.85ZM698.28 217.71h-18.12c.57 0 5.28-.24 5.28-5.71v-21.88c0-5.61-4.71-5.71-5.28-5.71h18.12c-.57 0-5.38.1-5.38 5.71V212c0 5.47 4.8 5.71 5.38 5.71ZM730.15 188.8c-3.04-2.76-7.75-5.66-11.65-3.47-1.9 1.09-2.43 3.23-1.86 5.42.76 2.85 3.19 4.47 8.09 5.61 10.42 2.43 13.79 6.71 12.41 14.03-1.19 6.42-7.04 8.32-12.6 8.23-5.57-.1-10.23-1.33-13.6-3.47v-11.22c2.33 4.9 7.28 10.89 13.08 12.65 4.19 1.24 8.99 1.14 9.47-2.76.38-3.23-1.38-6.37-10.84-8.94-8.89-2.38-11.41-6.42-10.89-12.27.62-6.23 6.28-8.89 13.08-8.8 6.18.1 10.04 2.14 10.04 2.14l.05 8.99s-1.24-2.95-4.76-6.13Z" class="cls-1"></path>
</svg>
